<mxfile host="app.diagrams.net" modified="2023-11-22T16:57:07.960Z" agent="Mozilla/5.0 (Windows NT 10.0; Win64; x64) AppleWebKit/537.36 (KHTML, like Gecko) Chrome/119.0.0.0 Safari/537.36 Edg/119.0.0.0" version="22.1.3" etag="BMFtrbd26uk2eeBHBsnM" type="github">
  <diagram name="PÃ¡gina-1" id="hF_rEiuC2ofaMZnCks0F">
    <mxGraphModel>
      <root>
        <mxCell id="0" />
        <mxCell id="1" parent="0" />
      </root>
    </mxGraphModel>
  </diagram>
</mxfile>
